<?xml version="1.0" encoding="UTF-8" standalone="no"?>
<!-- Generator: Adobe Illustrator 16.0.0, SVG Export Plug-In . SVG Version: 6.00 Build 0)  -->

<svg
   xmlns:dc="http://purl.org/dc/elements/1.1/"
   xmlns:cc="http://creativecommons.org/ns#"
   xmlns:rdf="http://www.w3.org/1999/02/22-rdf-syntax-ns#"
   xmlns:svg="http://www.w3.org/2000/svg"
   xmlns="http://www.w3.org/2000/svg"
   xmlns:sodipodi="http://sodipodi.sourceforge.net/DTD/sodipodi-0.dtd"
   xmlns:inkscape="http://www.inkscape.org/namespaces/inkscape"
   version="1.1"
   id="root"
   x="0px"
   y="0px"
   width="640px"
   height="480px"
   viewBox="0 0 640 480"
   enable-background="new 0 0 640 480"
   xml:space="preserve"
   inkscape:version="0.91 r13725"
   sodipodi:docname="softwaves.svg"><metadata
     id="metadata6362"><rdf:RDF><cc:Work
         rdf:about=""><dc:format>image/svg+xml</dc:format><dc:type
           rdf:resource="http://purl.org/dc/dcmitype/StillImage" /><dc:title></dc:title></cc:Work></rdf:RDF></metadata><defs
     id="defs6360" /><sodipodi:namedview
     pagecolor="#ffffff"
     bordercolor="#666666"
     borderopacity="1"
     objecttolerance="10"
     gridtolerance="10"
     guidetolerance="10"
     inkscape:pageopacity="0"
     inkscape:pageshadow="2"
     inkscape:window-width="1920"
     inkscape:window-height="1007"
     id="namedview6358"
     showgrid="false"
     inkscape:zoom="1.6854167"
     inkscape:cx="320"
     inkscape:cy="240"
     inkscape:window-x="0"
     inkscape:window-y="0"
     inkscape:window-maximized="1"
     inkscape:current-layer="root" /><g
     id="background_1_"><rect
       id="background"
       fill="#366C6C"
       width="640"
       height="481.001" /></g><g
     id="glows"
     display="none"><radialGradient
       id="SVGID_1_"
       cx="720.75"
       cy="784.5869"
       r="93.7261"
       gradientTransform="matrix(1 0 0 1 -220.6406 -510.8398)"
       gradientUnits="userSpaceOnUse"><stop
         offset="0"
         style="stop-color:#FFFCDD"
         id="stop6227" /><stop
         offset="1"
         style="stop-color:#FEF9C8;stop-opacity:0"
         id="stop6229" /></radialGradient><circle
       display="inline"
       opacity="0.2"
       fill="url(#SVGID_1_)"
       enable-background="new    "
       cx="500.11"
       cy="273.747"
       r="93.726"
       id="circle6231" /><radialGradient
       id="SVGID_2_"
       cx="668.6992"
       cy="752.332"
       r="74.187"
       gradientTransform="matrix(1 0 0 1 -220.6406 -510.8398)"
       gradientUnits="userSpaceOnUse"><stop
         offset="0"
         style="stop-color:#99CCCC"
         id="stop6234" /><stop
         offset="1"
         style="stop-color:#FEF9C8;stop-opacity:0"
         id="stop6236" /></radialGradient><circle
       display="inline"
       opacity="0.2"
       fill="url(#SVGID_2_)"
       enable-background="new    "
       cx="448.058"
       cy="241.492"
       r="74.187"
       id="circle6238" /><radialGradient
       id="SVGID_3_"
       cx="348.4785"
       cy="739.5762"
       r="98.3569"
       gradientTransform="matrix(1 0 0 1 -220.6406 -510.8398)"
       gradientUnits="userSpaceOnUse"><stop
         offset="0"
         style="stop-color:#FFFCDD"
         id="stop6241" /><stop
         offset="1"
         style="stop-color:#FEF9C8;stop-opacity:0"
         id="stop6243" /></radialGradient><circle
       display="inline"
       opacity="0.1"
       fill="url(#SVGID_3_)"
       enable-background="new    "
       cx="127.838"
       cy="228.736"
       r="98.357"
       id="circle6245" /><radialGradient
       id="SVGID_4_"
       cx="411.5879"
       cy="803.0352"
       r="98.3574"
       gradientTransform="matrix(1 0 0 1 -220.6406 -510.8398)"
       gradientUnits="userSpaceOnUse"><stop
         offset="0"
         style="stop-color:#FFFCDD"
         id="stop6248" /><stop
         offset="1"
         style="stop-color:#FEF9C8;stop-opacity:0"
         id="stop6250" /></radialGradient><circle
       display="inline"
       opacity="0.1"
       fill="url(#SVGID_4_)"
       enable-background="new    "
       cx="190.947"
       cy="292.196"
       r="98.357"
       id="circle6252" /><radialGradient
       id="SVGID_5_"
       cx="484.7109"
       cy="862.3955"
       r="125.8247"
       gradientTransform="matrix(1 0 0 1 -220.6406 -510.8398)"
       gradientUnits="userSpaceOnUse"><stop
         offset="0"
         style="stop-color:#FFFCDD"
         id="stop6255" /><stop
         offset="1"
         style="stop-color:#FEF9C8;stop-opacity:0"
         id="stop6257" /></radialGradient><circle
       display="inline"
       opacity="0.1"
       fill="url(#SVGID_5_)"
       enable-background="new    "
       cx="264.07"
       cy="351.556"
       r="125.825"
       id="circle6259" /><radialGradient
       id="SVGID_6_"
       cx="649.1973"
       cy="808.0928"
       r="125.8247"
       gradientTransform="matrix(1 0 0 1 -220.6406 -510.8398)"
       gradientUnits="userSpaceOnUse"><stop
         offset="0"
         style="stop-color:#FFFCDD"
         id="stop6262" /><stop
         offset="1"
         style="stop-color:#FEF9C8;stop-opacity:0"
         id="stop6264" /></radialGradient><circle
       display="inline"
       opacity="0.1"
       fill="url(#SVGID_6_)"
       enable-background="new    "
       cx="428.556"
       cy="297.253"
       r="125.825"
       id="circle6266" /><radialGradient
       id="SVGID_7_"
       cx="619.9346"
       cy="763.7822"
       r="125.8252"
       gradientTransform="matrix(1 0 0 1 -220.6406 -510.8398)"
       gradientUnits="userSpaceOnUse"><stop
         offset="0"
         style="stop-color:#99CCCC"
         id="stop6269" /><stop
         offset="1"
         style="stop-color:#FEF9C8;stop-opacity:0"
         id="stop6271" /></radialGradient><circle
       display="inline"
       opacity="0.2"
       fill="url(#SVGID_7_)"
       enable-background="new    "
       cx="399.294"
       cy="252.942"
       r="125.825"
       id="circle6273" /><radialGradient
       id="SVGID_8_"
       cx="745.7607"
       cy="763.7822"
       r="125.8252"
       gradientTransform="matrix(1 0 0 1 -220.6406 -510.8398)"
       gradientUnits="userSpaceOnUse"><stop
         offset="0"
         style="stop-color:#FFFCDD"
         id="stop6276" /><stop
         offset="1"
         style="stop-color:#FEF9C8;stop-opacity:0"
         id="stop6278" /></radialGradient><circle
       display="inline"
       opacity="0.2"
       fill="url(#SVGID_8_)"
       enable-background="new    "
       cx="525.12"
       cy="252.942"
       r="125.825"
       id="circle6280" /><radialGradient
       id="SVGID_9_"
       cx="708.8916"
       cy="852.4023"
       r="125.8252"
       gradientTransform="matrix(1 0 0 1 -220.6406 -510.8398)"
       gradientUnits="userSpaceOnUse"><stop
         offset="0"
         style="stop-color:#99CCCC"
         id="stop6283" /><stop
         offset="1"
         style="stop-color:#FEF9C8;stop-opacity:0"
         id="stop6285" /></radialGradient><circle
       display="inline"
       opacity="0.2"
       fill="url(#SVGID_9_)"
       enable-background="new    "
       cx="488.251"
       cy="341.563"
       r="125.825"
       id="circle6287" /></g><g
     id="waves_1_"
     opacity="0.8"
     enable-background="new    "><radialGradient
       id="SVGID_10_"
       cx="426.4971"
       cy="869.5166"
       r="236.5002"
       gradientTransform="matrix(1 0 0 1 -220.6406 -510.8398)"
       gradientUnits="userSpaceOnUse"><stop
         offset="0"
         style="stop-color:#FFFFFF"
         id="stop6291" /><stop
         offset="1"
         style="stop-color:#FFFFFF;stop-opacity:0"
         id="stop6293" /></radialGradient><path
       opacity="0.5"
       fill="url(#SVGID_10_)"
       enable-background="new    "
       d="M453.747,190.165c0,0,41.074,47.033,22.502,119.629   C444.856,432.511,349.8,452.123,195.822,417.213C-75.5,355.691-84.879,493.078-82.865,505.834l14.73,21.354   c-2.015-12.758,7.364-150.143,278.687-88.621c153.979,34.908,249.032,15.298,280.428-107.423   C509.552,258.557,453.747,190.165,453.747,190.165"
       id="path6295" /><radialGradient
       id="SVGID_11_"
       cx="531.9277"
       cy="975.5264"
       r="191.1324"
       gradientTransform="matrix(1 0 0 1 -220.6406 -510.8398)"
       gradientUnits="userSpaceOnUse"><stop
         offset="0"
         style="stop-color:#FFFFFF"
         id="stop6298" /><stop
         offset="1"
         style="stop-color:#FFFFFF;stop-opacity:0"
         id="stop6300" /></radialGradient><path
       opacity="0.5"
       fill="url(#SVGID_11_)"
       enable-background="new    "
       d="M572.542,395.339   c-72.865,45.283-132.584,50.167-243.637,28.719C57.584,362.539,48.206,499.922,50.219,512.68l14.73,21.354   c-2.015-12.756,7.365-150.138,278.683-88.62C459.603,473.945,532.757,435.173,572.542,395.339z"
       id="path6302" /><radialGradient
       id="SVGID_12_"
       cx="727.5547"
       cy="-509.8506"
       r="68.9656"
       gradientTransform="matrix(1 0 0 -1 -322.9805 -110.8799)"
       gradientUnits="userSpaceOnUse"><stop
         offset="0"
         style="stop-color:#FFFFFF"
         id="stop6305" /><stop
         offset="1"
         style="stop-color:#FFFFFF;stop-opacity:0"
         id="stop6307" /></radialGradient><path
       opacity="0.3"
       fill="url(#SVGID_12_)"
       enable-background="new    "
       d="M433.912,326.021c0,0,19.965,9.574,25.602,36.258   c9.529,45.104-16.604,65.391-69.354,76.221c-49.465,5.337-52.266,29.496-49.65,33.42c-2.613-3.923,13.105-21.67,57.516-28.503   c52.75-10.83,78.885-31.119,69.354-76.224C461.74,340.514,433.912,326.021,433.912,326.021"
       id="path6309" /></g><g
     id="logoGroup_2_"
     opacity="0.5"><g
       id="g6312"><g
         id="logo_9_"
         enable-background="new    "><path
           fill="#003333"
           d="M587.707,406.416c-1.729,0.023,0.324,0.889,2.586,1.24c0.619-0.494,1.182-0.984,1.688-1.461     C590.576,406.545,589.148,406.553,587.707,406.416"
           id="path6315" /><path
           fill="#003333"
           d="M596.973,404.107c1.029-1.428,1.783-2.976,2.045-4.58c-0.229,1.14-0.852,2.132-1.438,3.176     c-3.229,2.033-0.309-1.208-0.004-2.439C594.109,404.635,597.102,402.887,596.973,404.107"
           id="path6317" /><path
           fill="#003333"
           d="M600.398,395.199c0.211-3.109-0.609-2.125-0.889-0.943C599.838,394.428,600.09,396.449,600.398,395.199"
           id="path6319" /><path
           fill="#003333"
           d="M581.154,352.676c0.924,0.17,1.994,0.295,1.84,0.518C584.006,352.968,584.232,352.768,581.154,352.676"
           id="path6321" /><path
           fill="#003333"
           d="M582.994,353.188l-0.65,0.145l0.605-0.061L582.994,353.188"
           id="path6323" /><path
           fill="#003333"
           d="M611.744,396.378c0.105,2.796-0.816,4.151-1.648,6.554l-1.492,0.741     c-1.225,2.378,0.119,1.509-0.756,3.403c-1.908,1.695-5.787,5.299-7.023,5.631c-0.906-0.023,0.605-1.072,0.809-1.486     c-2.553,1.754-2.047,2.637-5.955,3.703l-0.107-0.256c-9.634,4.533-23.014-4.449-22.832-16.699     c-0.104,0.778-0.295,0.584-0.509,0.896c-0.497-6.301,2.911-12.633,8.655-15.221c5.625-2.778,12.217-1.646,16.24,2.115     c-2.211-2.896-6.615-5.971-11.832-5.688c-5.109,0.085-9.896,3.33-11.488,6.855c-2.618,1.645-2.922,6.354-4.064,7.215     c-1.535,11.283,2.893,16.156,10.373,21.896c1.176,0.791,0.33,0.906,0.486,1.518c-2.486-1.164-4.756-2.916-6.633-5.066     c0.992,1.447,2.066,2.863,3.451,3.975c-2.348-0.799-5.475-5.68-6.389-5.879c4.041,7.232,16.385,12.688,22.859,9.982     c-3,0.105-6.799,0.063-10.156-1.188c-1.419-0.729-3.334-2.223-2.992-2.508c8.83,3.293,17.943,2.492,25.584-3.629     c1.939-1.52,4.064-4.086,4.68-4.123c-0.924,1.395,0.158,0.668-0.553,1.896c1.932-3.125-0.842-1.272,2.002-5.39l1.047,1.444     c-0.393-2.604,3.228-5.745,2.854-9.846c0.829-1.256,0.926,1.353,0.045,4.232c1.219-3.201,0.327-3.712,0.635-6.354     c0.338,0.888,0.783,1.828,1.01,2.769c-0.793-3.097,0.814-5.206,1.217-7.003c-0.396-0.178-1.229,1.361-1.42-2.285     c0.027-1.586,0.445-0.83,0.602-1.221c-0.311-0.184-1.128-1.398-1.621-3.729c0.355-0.547,0.961,1.425,1.453,1.503     c-0.318-1.851-0.861-3.267-0.884-4.691c-1.435-2.993-0.507,0.404-1.666-1.283c-1.524-4.758,1.263-1.105,1.452-3.266     c2.311,3.348,3.628,8.537,4.23,10.688c-0.459-2.623-1.205-5.161-2.117-7.618c0.703,0.3-1.135-5.39,0.912-1.622     c-2.187-8.033-9.34-15.535-15.924-19.05c0.801,0.733,1.818,1.656,1.457,1.804c-3.273-1.947-2.703-2.104-3.173-2.927     c-2.666-1.082-2.843,0.091-4.604,0.009c-5.024-2.67-5.994-2.392-10.623-4.057l0.205,0.982c-3.33-1.107-3.881,0.42-7.483,0.006     c-0.214-0.176,1.161-0.623,2.284-0.783c-3.215,0.425-3.063-0.635-6.217,0.117c0.771-0.547,1.599-0.908,2.426-1.371     c-2.627,0.162-6.27,1.527-5.146,0.283c-4.285,1.908-11.895,4.591-16.158,8.599l-0.133-0.901     c-1.959,2.354-8.533,7.018-9.057,10.059l-0.525,0.121c-1.016,1.725-1.678,3.68-2.48,5.449c-1.336,2.27-1.948,0.871-1.762,1.229     c-2.621,5.31-3.922,9.771-5.045,13.431c0.805,1.194,0.014,7.205,0.318,12.014c-1.311,23.751,16.668,46.813,36.322,52.134     c2.879,1.033,7.164,0.998,10.807,1.094c-4.295-1.223-4.854-0.646-9.043-2.105c-3.021-1.424-3.682-3.043-5.816-4.906l0.842,1.498     c-4.192-1.484-2.438-1.842-5.854-2.92l0.902-1.184c-1.361-0.104-3.604-2.288-4.211-3.509l-1.491,0.063     c-1.782-2.203-2.739-3.801-2.668-5.027l-0.481,0.854c-0.547-0.932-6.576-8.271-3.445-6.563c-0.582-0.529-1.357-0.865-2.194-2.385     l0.634-0.734c-1.502-1.934-2.771-4.422-2.672-5.244c0.801,1.086,1.361,1.283,1.918,1.473c-3.811-9.436-4.021-0.521-6.906-9.607     l0.615-0.055c-0.471-0.7-0.75-1.463-1.132-2.215l0.271-2.641c-2.736-3.162-0.764-13.46-0.375-19.109     c0.273-2.297,2.283-4.742,3.82-8.576l-0.936-0.159c1.781-3.105,10.174-12.485,14.064-12.009c1.883-2.357-0.379-0.006-0.746-0.6     c4.141-4.277,5.438-3.029,8.229-3.795c3.018-1.789-2.579,0.701-1.154-0.68c5.202-1.326,3.689-3.021,10.475-3.693     c0.721,0.404-1.658,0.624-2.254,1.154c4.334-2.125,13.727-1.639,19.82,1.178c7.068,3.305,15.02,13.076,15.334,22.273l0.357,0.098     c-0.178,3.654,0.563,7.879-0.727,11.766L611.744,396.378"
           id="path6325" /><path
           fill="#003333"
           d="M568.85,408.787l-0.244,1.211c1.133,1.547,2.039,3.215,3.486,4.422     C571.047,412.385,570.271,411.545,568.85,408.787"
           id="path6327" /><path
           fill="#003333"
           d="M571.533,408.688c-0.604-0.67-0.957-1.473-1.354-2.268c0.379,1.404,1.16,2.607,1.889,3.83     L571.533,408.688"
           id="path6329" /><path
           fill="#003333"
           d="M619.031,398.361l-0.25,0.636c-0.467,3.303-1.477,6.575-3.02,9.606     C617.467,405.408,618.561,401.907,619.031,398.361"
           id="path6331" /><path
           fill="#003333"
           d="M581.498,351.85c1.166-0.427,2.867-0.231,4.109-0.514c-1.617,0.135-3.225,0.211-4.814,0.415     L581.498,351.85"
           id="path6333" /><path
           fill="#003333"
           d="M540.49,373.656c0.268,2.486-1.871,3.455,0.473,1.814C542.225,372.635,540.477,374.686,540.49,373.656"
           id="path6335" /><path
           fill="#003333"
           d="M537.729,385.186c0.551-1.656,0.646-2.653,0.852-3.617C537.08,383.479,537.887,383.886,537.729,385.186"
           id="path6337" /></g></g></g></svg>